<svg xmlns="http://www.w3.org/2000/svg" width="1em" height="1em" viewBox="0 0 16 16"><path d="M1 12h13v1H1zM14.75 8.1a.623.623 0 0 0-.091-.11l-.035-.036a5.537 5.537 0 0 1-.093-.095c-.315-.314-2.34-1.805-3.436-2.528-.358-.236-.76-.331-.999-.331h-3.54l1.295-.89c.1-.076.149-.134.149-.256a.332.332 0 0 0-.142-.276L6.364 2.399H5.4l1.702 1.434-1.7 1.166h.001H1v6h12.612c.196 0 .38-.098.488-.263.49-.755.9-1.41.9-1.902 0-.277-.095-.529-.25-.735zm-2.537-.508c-.046.136-.173.172-.317.172h-.666c-.071 0-.185.01-.284-.063l-.95-.671a.332.332 0 0 1 .2-.599h.666a.33.33 0 0 1 .2.068l1.034.778c.115.086.162.18.117.315z"/>{&apos; &apos;}</svg>