<svg fill="#fff" height="800" width="800" xmlns="http://www.w3.org/2000/svg" viewBox="0 0 459.923 459.923" xml:space="preserve"><path d="M387.072 380.042H344.48l12.058 53.036c2.543 11.184 13.672 18.188 24.854 15.645 11.183-2.543 18.188-13.67 15.646-24.853l-9.966-43.828zM336.232 260.929c0-11.327-.022-10.734.063-11.998l-28.227-12.584c-14.066-6.271-20.374-20.629-19.832-29.154l4.489-70.611 12.091 71.665a17.308 17.308 0 0 0 10.018 12.927l63.147 28.152c7.683 3.426 16.584.809 21.26-5.95 6.243-9.027 2.638-21.289-7.167-25.661l-54.673-24.375-10.949-64.899 23.413 52.103 4.346-50.553c1.22-14.198-9.3-26.697-23.497-27.917l-45.844-3.941c-14.112-1.213-26.541 9.175-27.889 23.243l-41.843 36.064a17.268 17.268 0 0 0-3.462 4.077l-39.814 65.15c-3.356 5.492-3.268 12.112-.364 17.37l-9.011 13.714-45.388-29.824c-7.606-4.998-17.836-2.871-22.818 4.748L2.686 372.745c-4.968 7.597-2.849 17.782 4.738 22.767l29.928 19.665a28.908 28.908 0 0 0 .157 10.974c3.182 15.38 18.378 25.768 34.222 22.487 15.67-3.242 25.731-18.548 22.487-34.223a28.736 28.736 0 0 0-4.173-10.023c67.919-103.866 51.353-78.609 99.376-151.682 4.777-.793 9.198-3.571 11.921-8.027l38.402-62.84 12.994-11.2s-5.901 83.521-5.859 83.791l12.397 78.967-33.094 87.743c-4.047 10.731 1.371 22.711 12.102 26.758 10.733 4.047 22.711-1.373 26.758-12.102l35.029-92.875a20.79 20.79 0 0 0 1.085-10.549l-11.789-75.089 10.953.942 6.181 13.676c4.89-6.651 12.764-10.978 21.633-10.978 3.12.002 5.056.002 8.098.002zM67.729 429.306c-5.091 1.056-9.883-2.296-10.889-7.155a9.208 9.208 0 0 1 7.155-10.889c5.11-1.056 9.887 2.312 10.889 7.155a9.207 9.207 0 0 1-7.155 10.889z"/><circle cx="318.84" cy="48.876" r="38.196"/><path d="M447.89 275.736h-22.904v-25.129c0-4.421-2.907-8.162-6.913-9.419a34.29 34.29 0 0 1-2.067 6.144 33.857 33.857 0 0 1-10.763 13.406v14.998h-34.462v-11.431l-19.742-8.801v20.232h-22.904c-6.647 0-12.033 5.388-12.033 12.033v65.432c0 6.646 5.387 12.033 12.033 12.033H447.89c6.646 0 12.033-5.388 12.033-12.033V287.77c0-6.767-5.544-12.034-12.033-12.034z"/></svg>